<svg xmlns="http://www.w3.org/2000/svg" x="0px" y="0px" width="30" height="30"
                            viewBox="0 0 172 172" style=" fill:#000000;">
                            <g fill="none" fill-rule="nonzero" stroke="none" stroke-width="1" stroke-linecap="butt"
                                stroke-linejoin="miter" stroke-miterlimit="10" stroke-dasharray="" stroke-dashoffset="0"
                                font-family="none" font-weight="none" font-size="none" text-anchor="none"
                                style="mix-blend-mode: normal">
                                <path d="M0,172v-172h172v172z" fill="none"></path>
                                <g fill="#ecf0f1">
                                    <path
                                        d="M18.86499,10.75c-4.80811,0 -8.63742,4.27069 -8.05725,9.04407l14.69202,121.59363c0.65132,5.38174 4.49808,9.85792 9.72644,11.34314l47.12573,13.37976c2.3733,0.67283 4.88975,0.68858 7.27515,0.04199l49.56128,-13.427c5.39769,-1.46146 9.35828,-6.10169 9.9154,-11.65283l12.22498,-121.44141c0.47582,-4.72226 -3.32615,-8.88135 -8.073,-8.88135zM18.86499,16.125h134.39075c1.67627,0 2.88804,1.34533 2.72424,2.97095l-0.38843,3.85803c-0.46057,-0.92619 -1.41177,-1.50589 -2.44604,-1.49072c-1.4822,0.02317 -2.66581,1.242 -2.64551,2.72424v5.375c-0.01294,1.00188 0.53248,1.92779 1.41504,2.40216c0.88255,0.47437 1.95571,0.41845 2.78418,-0.14508l-10.94421,108.71252c0,0.00175 0,0.0035 0,0.00525c-0.33512,3.33911 -2.69059,6.11478 -5.96814,7.0022c-0.00175,0 -0.0035,0 -0.00525,0l-49.56128,13.427c-1.44161,0.39077 -2.96111,0.3814 -4.39868,-0.02624l-47.12573,-13.37976c-3.17277,-0.90129 -5.46647,-3.5841 -5.85791,-6.81848l-13.13306,-108.69678c0.83728,0.37864 1.80998,0.30328 2.57895,-0.1998c0.76898,-0.50308 1.22764,-1.36415 1.21609,-2.28299v-5.375c0.00995,-0.72643 -0.2746,-1.42595 -0.78881,-1.93917c-0.51421,-0.51322 -1.21427,-0.79642 -1.94068,-0.78507c-0.88749,0.01458 -1.71054,0.46638 -2.19934,1.20728l-0.42517,-3.52209c0,-0.00175 0,-0.0035 0,-0.00525c-0.19921,-1.639 1.02335,-3.01819 2.71899,-3.01819zM32.20801,21.46326c-1.4822,0.02317 -2.66581,1.242 -2.64551,2.72424v5.375c-0.01371,0.96921 0.49551,1.87072 1.33266,2.35932c0.83715,0.4886 1.87253,0.4886 2.70968,0c0.83715,-0.4886 1.34637,-1.39011 1.33266,-2.35932v-5.375c0.00995,-0.72643 -0.2746,-1.42595 -0.78881,-1.93917c-0.51421,-0.51322 -1.21427,-0.79642 -1.94068,-0.78507zM45.64551,21.46326c-1.4822,0.02317 -2.66581,1.242 -2.64551,2.72424v5.375c-0.01371,0.96921 0.49551,1.87072 1.33266,2.35932c0.83715,0.4886 1.87253,0.4886 2.70968,0c0.83715,-0.4886 1.34637,-1.39011 1.33266,-2.35932v-5.375c0.00995,-0.72643 -0.2746,-1.42595 -0.78881,-1.93917c-0.51421,-0.51322 -1.21427,-0.79642 -1.94068,-0.78507zM59.08301,21.46326c-1.4822,0.02317 -2.66581,1.242 -2.64551,2.72424v5.375c-0.01371,0.96921 0.49551,1.87072 1.33266,2.35932c0.83715,0.4886 1.87253,0.4886 2.70968,0c0.83715,-0.4886 1.34637,-1.39011 1.33266,-2.35932v-5.375c0.00995,-0.72643 -0.2746,-1.42595 -0.78881,-1.93917c-0.51421,-0.51322 -1.21427,-0.79642 -1.94068,-0.78507zM72.52051,21.46326c-1.4822,0.02317 -2.66581,1.242 -2.64551,2.72424v5.375c-0.01371,0.96921 0.49551,1.87072 1.33266,2.35932c0.83715,0.4886 1.87253,0.4886 2.70968,0c0.83715,-0.4886 1.34637,-1.39011 1.33266,-2.35932v-5.375c0.00995,-0.72643 -0.2746,-1.42595 -0.78881,-1.93917c-0.51421,-0.51322 -1.21427,-0.79642 -1.94068,-0.78507zM85.95801,21.46326c-1.4822,0.02317 -2.66581,1.242 -2.64551,2.72424v5.375c-0.01371,0.96921 0.49551,1.87072 1.33266,2.35932c0.83715,0.4886 1.87253,0.4886 2.70968,0c0.83715,-0.4886 1.34637,-1.39011 1.33266,-2.35932v-5.375c0.00995,-0.72643 -0.2746,-1.42595 -0.78881,-1.93917c-0.51421,-0.51322 -1.21427,-0.79642 -1.94068,-0.78507zM99.39551,21.46326c-1.4822,0.02317 -2.66581,1.242 -2.64551,2.72424v5.375c-0.01371,0.96921 0.49551,1.87072 1.33266,2.35932c0.83715,0.4886 1.87253,0.4886 2.70968,0c0.83715,-0.4886 1.34637,-1.39011 1.33266,-2.35932v-5.375c0.00995,-0.72643 -0.2746,-1.42595 -0.78881,-1.93917c-0.51421,-0.51322 -1.21427,-0.79642 -1.94068,-0.78507zM112.83301,21.46326c-1.4822,0.02317 -2.66581,1.242 -2.64551,2.72424v5.375c-0.01371,0.96921 0.49551,1.87072 1.33266,2.35932c0.83715,0.4886 1.87253,0.4886 2.70968,0c0.83715,-0.4886 1.34637,-1.39011 1.33266,-2.35932v-5.375c0.00995,-0.72643 -0.2746,-1.42595 -0.78881,-1.93917c-0.51421,-0.51322 -1.21427,-0.79642 -1.94068,-0.78507zM126.27051,21.46326c-1.4822,0.02317 -2.66581,1.242 -2.64551,2.72424v5.375c-0.01371,0.96921 0.49551,1.87072 1.33266,2.35932c0.83715,0.4886 1.87253,0.4886 2.70968,0c0.83715,-0.4886 1.34637,-1.39011 1.33266,-2.35932v-5.375c0.00995,-0.72643 -0.2746,-1.42595 -0.78881,-1.93917c-0.51421,-0.51322 -1.21427,-0.79642 -1.94068,-0.78507zM139.70801,21.46326c-1.4822,0.02317 -2.66581,1.242 -2.64551,2.72424v5.375c-0.01371,0.96921 0.49551,1.87072 1.33266,2.35932c0.83715,0.4886 1.87253,0.4886 2.70968,0c0.83715,-0.4886 1.34637,-1.39011 1.33266,-2.35932v-5.375c0.00995,-0.72643 -0.2746,-1.42595 -0.78881,-1.93917c-0.51421,-0.51322 -1.21427,-0.79642 -1.94068,-0.78507zM45.6875,43c-3.2492,0 -5.81472,2.9978 -5.30676,6.2096l2.05237,13.02283c0.20647,1.30446 1.33006,2.26563 2.65076,2.26758h63.08276l-1.27026,10.75h-39.70886c-1.4842,0.00015 -2.68735,1.2033 -2.6875,2.6875v16.125c0.00015,1.4842 1.2033,2.68735 2.6875,2.6875h37.16833l-1.85815,15.74707l-16.20374,4.93933l-14.16186,-4.79761l-0.93958,-5.97339c0,-0.00175 0,-0.0035 0,-0.00525c-0.41081,-2.59281 -2.68082,-4.53516 -5.30676,-4.53516h-10.88123c-3.25212,0 -5.81454,2.99872 -5.31201,6.2096c0,0.00175 0,0.0035 0,0.00525l2.72424,17.30078c0.30741,1.95231 1.68425,3.59167 3.56409,4.22546l28.36047,9.60571c0.00175,0 0.0035,0 0.00525,0c0.54328,0.1828 1.11792,0.2782 1.69018,0.2782c0.51935,0 1.03642,-0.0783 1.53796,-0.23096l31.29468,-9.53222c2.02017,-0.61578 3.49862,-2.38468 3.74255,-4.48792l7.76855,-65.73877l1.27551,-10.80249c0.36859,-3.12499 -2.1498,-5.95764 -5.29626,-5.95764zM45.6875,48.375h80.625l-1.27026,10.75l-7.76331,65.72302l-31.24219,9.52173l-28.31323,-9.58996l-2.71899,-17.27454v-0.00525h10.88123l1.19153,7.57959c0.1565,0.98731 0.84801,1.8062 1.79517,2.12586l16.51868,5.59546c0.53148,0.18004 1.10598,0.18922 1.64294,0.02625l18.70752,-5.70044c1.02251,-0.3099 1.76437,-1.19601 1.88965,-2.25708l2.4198,-20.49219c0.08992,-0.7628 -0.15079,-1.52763 -0.66139,-2.10142c-0.5106,-0.57379 -1.24228,-0.90173 -2.01036,-0.90102h-37.50427v-10.75h39.40967c1.36345,0.00128 2.51185,-1.01852 2.67175,-2.37256l1.9054,-16.125c0.08992,-0.7628 -0.15079,-1.52763 -0.66139,-2.10142c-0.5106,-0.57379 -1.24228,-0.90173 -2.01036,-0.90102h-63.80713zM112.89075,140.44812c-0.24335,0.00228 -0.48527,0.03759 -0.71912,0.10498l-5.375,1.45398c-0.95082,0.22961 -1.70184,0.95764 -1.96088,1.90087c-0.25904,0.94323 0.01479,1.95272 0.71496,2.63575c0.70018,0.68303 1.71614,0.93176 2.65266,0.64942l5.375,-1.45398c1.31514,-0.3377 2.17187,-1.60323 1.99689,-2.94971c-0.17499,-1.34648 -1.32674,-2.35099 -2.68451,-2.34131zM72.49951,143.87048c-1.33959,0.01775 -2.46157,1.01929 -2.63067,2.34829c-0.1691,1.32899 0.66633,2.57959 1.95879,2.93223l14.23535,4.04175l11.39038,-3.08642c0.95081,-0.22962 1.7018,-0.95765 1.96084,-1.90087c0.25904,-0.94322 -0.01479,-1.95269 -0.71495,-2.63572c-0.70016,-0.68303 -1.71612,-0.93176 -2.65263,-0.64944l-9.9469,2.698l-12.80237,-3.63757c-0.25891,-0.07661 -0.52788,-0.11377 -0.79785,-0.11023z">
                                    </path>
                                </g>
                            </g>
                        </svg>