<svg xmlns="http://www.w3.org/2000/svg" x="0px" y="0px"
width="50" height="50"
viewBox="0 0 226 226"
style=" fill:#000000;"><g fill="none" fill-rule="nonzero" stroke="none" stroke-width="1" stroke-linecap="butt" stroke-linejoin="miter" stroke-miterlimit="10" stroke-dasharray="" stroke-dashoffset="0" font-family="none" font-weight="none" font-size="none" text-anchor="none" style="mix-blend-mode: normal"><path d="M0,226v-226h226v226z" fill="none"></path><g fill="#ffffff"><path d="M105.9375,14.125c-51.48209,0 -91.8125,17.063 -91.8125,38.84375v105.9375c0,21.78781 40.32688,38.84375 91.8125,38.84375c21.47,0 41.03312,-2.96459 56.5,-8.01428v25.67053c0,1.94219 1.58906,3.53125 3.53125,3.53125h21.1875c1.94219,0 3.53125,-1.58906 3.53125,-3.53125v-44.45789l8.08325,8.12464c1.37719,1.37719 3.64381,1.37718 5.021,0l14.125,-14.125c1.37719,-1.37719 1.37718,-3.64381 0,-5.021l-20.16675,-20.15985v-86.7984c0,-21.78075 -40.33041,-38.84375 -91.8125,-38.84375zM105.9375,21.1875c50.69463,0 84.75,16.43444 84.75,31.78125c0,15.34681 -34.05537,31.78125 -84.75,31.78125c-50.69462,0 -84.75,-16.43444 -84.75,-31.78125c0,-15.34681 34.05538,-31.78125 84.75,-31.78125zM109.91016,28.28448c-1.921,0 -3.49594,1.53775 -3.53125,3.46228c-0.03531,1.95278 1.51656,3.56491 3.46228,3.60022c3.3335,0.06003 6.69553,0.20514 9.99371,0.42761c0.08122,0.00706 0.16371,0.0069 0.24139,0.0069c1.83978,0 3.39723,-1.43225 3.52435,-3.29675c0.13066,-1.94572 -1.34414,-3.62819 -3.28986,-3.75885c-3.41119,-0.22953 -6.88516,-0.37784 -10.33166,-0.44141zM94.03332,28.57416c-11.14463,0.6215 -21.76116,2.13034 -30.68463,4.37268c-1.89275,0.47319 -3.03886,2.4007 -2.56567,4.28992c0.40609,1.60672 1.84579,2.66913 3.42779,2.66913c0.28603,0 0.57609,-0.03283 0.86212,-0.10346c8.49972,-2.13287 18.6503,-3.57588 29.35352,-4.17267c1.94925,-0.10947 3.43734,-1.77865 3.32434,-3.72437c-0.10594,-1.94572 -1.79647,-3.44424 -3.71747,-3.33124zM21.1875,68.18347c13.7295,14.012 46.09341,23.62903 84.75,23.62903c38.65659,0 71.0205,-9.61703 84.75,-23.62903v20.09778c0,15.34681 -34.05537,31.78125 -84.75,31.78125c-50.69462,0 -84.75,-16.43444 -84.75,-31.78125zM21.1875,103.49597c13.7295,14.012 46.09341,23.62903 84.75,23.62903c38.65659,0 71.0205,-9.61703 84.75,-23.62903v29.20868l-11.6145,-11.6214c-1.37719,-1.37719 -3.64381,-1.37719 -5.021,0l-29.27075,29.27765v-1.69666c0,-1.94925 -1.57847,-3.53125 -3.53125,-3.53125c-1.95278,0 -3.53125,1.582 -3.53125,3.53125v7.0625c0,0.49791 0.10605,0.97281 0.28967,1.40009l-2.80017,2.80017c-1.37719,1.37719 -1.37719,3.64381 0,5.021l14.125,14.125c1.37719,1.37719 3.64381,1.37718 5.021,0l8.08325,-8.12464v11.40759c-14.44281,5.04969 -33.79406,8.33154 -56.5,8.33154c-50.70875,0 -84.75,-16.42031 -84.75,-31.78125v-20.17365c11.34591,11.66725 35.58606,20.41736 66.58337,22.96692c0.09888,0.00706 0.20122,0.01379 0.29657,0.01379c1.82212,0 3.36561,-1.39827 3.51746,-3.24158c0.15891,-1.94219 -1.28896,-3.65159 -3.23468,-3.81403c-38.28934,-3.14634 -67.16272,-16.50109 -67.16272,-31.06396zM176.5625,128.57336l33.86414,33.86414l-9.14539,9.14539l-11.6145,-11.65589c-1.02406,-0.98875 -2.54885,-1.30297 -3.85541,-0.73797c-1.34188,0.52969 -2.18634,1.83597 -2.18634,3.24847v49.4375h-14.125v-49.4375c0,-1.4125 -0.84447,-2.71879 -2.18634,-3.24847c-1.30656,-0.565 -2.83134,-0.25077 -3.85541,0.73797l-11.6145,11.65589l-9.14539,-9.14539zM123.59375,147.60901c-1.95278,0 -3.53125,1.582 -3.53125,3.53125v7.0625c0,1.94925 1.57847,3.53125 3.53125,3.53125c1.95278,0 3.53125,-1.582 3.53125,-3.53125v-7.0625c0,-1.94925 -1.57847,-3.53125 -3.53125,-3.53125zM105.9375,148.3125c-1.95278,0 -3.53125,1.582 -3.53125,3.53125v7.0625c0,1.94925 1.57847,3.53125 3.53125,3.53125c1.95278,0 3.53125,-1.582 3.53125,-3.53125v-7.0625c0,-1.94925 -1.57847,-3.53125 -3.53125,-3.53125z"></path></g></g></svg>