<svg xmlns="http://www.w3.org/2000/svg" x="0px" y="0px"
width="100" height="100"
viewBox="0 0 172 172"
style=" fill:#000000;"><g fill="none" fill-rule="nonzero" stroke="none" stroke-width="1" stroke-linecap="butt" stroke-linejoin="miter" stroke-miterlimit="10" stroke-dasharray="" stroke-dashoffset="0" font-family="none" font-weight="none" font-size="none" text-anchor="none" style="mix-blend-mode: normal"><path d="M0,172v-172h172v172z" fill="none"></path><g fill="#ecf0f1"><path d="M22.93781,13.76c-5.06594,0 -9.17781,4.11188 -9.17781,9.17781v126.12437c0,5.06594 4.11188,9.17781 9.17781,9.17781h126.12437c5.06594,0 9.17781,-4.11187 9.17781,-9.17781v-126.12437c0,-5.06594 -4.11187,-9.17781 -9.17781,-9.17781zM110.69813,67.38906c7.96844,0 10.17219,8.4925 10.17219,15.8025c0,7.91469 -1.86781,12.84625 -4.945,14.47219v0.22844c2.09625,0.90031 4.39406,1.6125 6.45,2.37844l-2.24406,4.70312c-2.83531,-1.14219 -6.00656,-2.75469 -8.45219,-4.17906c-0.73906,-0.37625 -1.26313,-0.65844 -1.55875,-0.65844c-6.40969,0 -10.32,-6.03344 -10.32,-16.47437c0,-8.58656 3.56094,-16.27281 10.89781,-16.27281zM91.28094,67.46969c2.15,0 4.21938,0.57781 5.20031,1.15563l-1.03469,5.34812c-0.94063,-0.56437 -2.35156,-1.08844 -4.20594,-1.08844c-2.74125,0 -4.05813,1.6125 -4.05813,3.3325c0,1.89469 0.98094,2.88906 4.54188,4.98531c4.35375,2.55312 5.95281,5.77812 5.95281,9.15094c0,5.83188 -4.43437,9.675 -10.88437,9.675c-2.64719,0 -5.24063,-0.65844 -6.31563,-1.29l0.94063,-5.36156c1.31687,0.71219 3.56094,1.23625 5.42875,1.23625c3.02344,0 4.48812,-1.51844 4.48812,-3.60125c0,-2.32469 -1.46469,-3.46687 -4.24625,-5.22719c-4.50156,-2.64719 -6.20812,-6.00656 -6.20812,-8.90906c0,-5.11969 3.52062,-9.40625 10.40062,-9.40625zM33.06969,67.76531h6.74563l2.64719,11.56969c0.92719,4.04469 1.74688,7.59219 2.33813,11.20688h0.09406c0.49719,-3.56094 1.22281,-7.16219 2.09625,-11.20688l2.59344,-11.56969h6.74562l2.00219,31.98125h-5.71094l-0.59125,-11.20688c-0.14781,-3.03687 -0.38969,-7.16219 -0.28219,-10.57531h-0.14781c-0.59125,3.41312 -1.47812,7.35031 -2.10969,9.82281l-2.83531,11.43531h-4.54187l-2.72781,-11.24719c-0.645,-2.56656 -1.51844,-6.54406 -2.01563,-10.01094h-0.13437c-0.1075,3.46687 -0.29563,7.49812 -0.49719,10.66937l-0.5375,11.11281h-5.52281zM124.915,67.76531h6.40969v26.71375h8.45219v5.2675h-14.86188zM110.4025,72.79094c-2.64719,0 -3.96406,4.79719 -3.96406,10.83063c-0.04031,6.49031 1.12875,11.08594 3.96406,11.08594c2.6875,0 3.7625,-4.59562 3.7625,-11.23375c0,-5.97969 -0.92719,-10.68281 -3.7625,-10.68281zM60.45531,76.52656h6.88v0.01344l2.35156,12.05344c0.24187,1.37063 0.43,2.66063 0.63156,3.89688h0.09406c0.20156,-1.19594 0.38969,-2.52625 0.59125,-3.80281l2.00219,-12.1475h6.26188l-4.89125,17.88531c-1.16906,4.36719 -2.74125,8.88219 -5.32125,11.86531c-2.00219,2.27094 -4.46125,3.37281 -5.42875,3.655l-1.96188,-5.36156c1.12875,-0.38969 2.20375,-1.08844 3.18469,-1.94844c0.88687,-0.80625 1.55875,-1.76031 2.00219,-2.75469c0.20156,-0.43 0.33594,-0.67187 0.33594,-0.99437c0,-0.29563 -0.09406,-0.57781 -0.18812,-0.86z"></path></g></g></svg>