<svg xmlns="http://www.w3.org/2000/svg" x="0px" y="0px"
width="64" height="64"
viewBox="0 0 226 226"
style=" fill:#000000;"><g fill="none" fill-rule="none" stroke="none" stroke-width="1" stroke-linecap="butt" stroke-linejoin="miter" stroke-miterlimit="10" stroke-dasharray="" stroke-dashoffset="0" font-family="none" font-weight="none" font-size="none" text-anchor="none" style="mix-blend-mode: normal"><path d="M0,226v-226h226v226z" fill="none" fill-rule="nonzero"></path><g fill="#ffffff" fill-rule="evenodd"><path d="M100.75098,94.16667c-1.43457,0 -3.75196,0.62532 -4.81869,2.5013l-14.97103,25.89583l8.12924,0.03678l11.58691,-20.08398l5.55436,9.45345h-10.59375l4.11979,7.0625h10.55697l1.98632,3.53125h8.16602l-15.00781,-26.00619c-1.54493,-2.35417 -3.49447,-2.39095 -4.70833,-2.39095zM155.375,94.20345h-21.77604c-7.46712,0 -13.53646,6.36361 -13.53646,14.125c0,7.83497 6.06933,14.125 13.53646,14.125l14.71354,0.11035l7.0625,-7.17285l-21.81282,0.07357c-3.97266,-0.03678 -6.3636,-3.8623 -6.43718,-7.09928c-0.11035,-3.49447 2.57487,-7.17285 6.47396,-7.24643l14.71354,0.22071zM49.4375,94.24024v28.25h7.0625v-21.1875h9.04883c2.68522,-0.03679 5.07617,0.95638 5.07617,3.49446c0,2.53809 -2.35417,3.60482 -4.7819,3.60482h-9.3431l11.99154,14.16178l9.19596,-0.07356l-7.20964,-8.46029c0,0 7.17285,-2.13346 7.20964,-9.37989c0.03678,-5.9222 -3.56803,-10.33626 -9.63737,-10.40982zM160.19369,94.24024v25.52799c0,0.6989 0.2207,1.39779 0.73568,1.91276c0.51497,0.51498 1.17708,0.80925 1.91276,0.80925l18.53906,0.07356l7.0625,-7.13606h-21.1875v-21.1875zM202.56869,94.24024c-7.02572,0 -12.72722,6.3636 -12.72722,14.19856c0,7.7614 5.77507,14.08822 12.72722,14.08822l16.51595,0.03678l6.80501,-5.73828h-23.32096c-1.94954,0.03678 -4.89225,-2.64844 -5.07618,-5.48079l21.59212,-0.03678l6.76823,-5.55436c0,0 -21.1875,0.07356 -28.39714,0.14714c-0.03678,-3.71517 3.16342,-6.06933 5.11296,-6.10612h16.51595l6.91536,-5.48079zM14.125,94.27702c-7.50391,0 -14.125,6.73145 -14.125,14.49283c0,7.79818 6.62109,13.75717 14.125,13.75717h14.125c7.50391,0 14.125,-6.32682 14.125,-14.125c0,-7.79818 -6.62109,-14.125 -14.125,-14.125zM14.125,101.33952h14.125c1.39779,0.03678 6.43718,2.13346 6.4004,6.98893c-0.03679,5.33367 -4.59799,7.09929 -6.4004,7.13607h-14.125c-3.23698,-0.03678 -6.51074,-3.75196 -6.51074,-6.98894c0,-3.97266 3.75195,-7.20964 6.51074,-7.13606z"></path></g></g></svg>