<svg xmlns="http://www.w3.org/2000/svg" x="0px" y="0px"
width="30" height="30"
viewBox="0 0 172 172"
style=" fill:#000000;"><g fill="none" fill-rule="nonzero" stroke="none" stroke-width="1" stroke-linecap="butt" stroke-linejoin="miter" stroke-miterlimit="10" stroke-dasharray="" stroke-dashoffset="0" font-family="none" font-weight="none" font-size="none" text-anchor="none" style="mix-blend-mode: normal"><path d="M0,172v-172h172v172z" fill="none"></path><g fill="#ecf0f1"><path d="M29.5625,10.89697c-10.37207,0 -18.8125,8.44043 -18.8125,18.8125v112.875c0,10.37207 8.44043,18.8125 18.8125,18.8125h112.875c10.37207,0 18.8125,-8.44043 18.8125,-18.8125v-112.875c0,-10.37207 -8.44043,-18.8125 -18.8125,-18.8125zM29.5625,16.27197h112.875c7.41162,0 13.4375,6.02588 13.4375,13.4375v112.875c0,7.41162 -6.02588,13.4375 -13.4375,13.4375h-112.875c-7.41162,0 -13.4375,-6.02588 -13.4375,-13.4375v-112.875c0,-7.41162 6.02588,-13.4375 13.4375,-13.4375zM24.1875,27.02197c-1.48022,0 -2.6875,1.19678 -2.6875,2.6875v5.375c0,1.49072 1.20728,2.6875 2.6875,2.6875c1.48022,0 2.6875,-1.19678 2.6875,-2.6875v-5.375c0,-1.49072 -1.20728,-2.6875 -2.6875,-2.6875zM37.625,27.02197c-1.48022,0 -2.6875,1.19678 -2.6875,2.6875v5.375c0,1.49072 1.20728,2.6875 2.6875,2.6875c1.48022,0 2.6875,-1.20728 2.6875,-2.6875v-5.375c0,-1.49072 -1.20728,-2.6875 -2.6875,-2.6875zM51.0625,27.02197c-1.48022,0 -2.6875,1.19678 -2.6875,2.6875v5.375c0,1.48022 1.20728,2.6875 2.6875,2.6875c1.48022,0 2.6875,-1.19678 2.6875,-2.6875v-5.375c0,-1.49072 -1.20728,-2.6875 -2.6875,-2.6875zM64.5,27.02197c-1.48022,0 -2.6875,1.19678 -2.6875,2.6875v5.375c0,1.49072 1.20728,2.6875 2.6875,2.6875c1.48022,0 2.6875,-1.19678 2.6875,-2.6875v-5.375c0,-1.49072 -1.20728,-2.6875 -2.6875,-2.6875zM77.9375,27.02197c-1.48022,0 -2.6875,1.19678 -2.6875,2.6875v5.375c0,1.48022 1.20728,2.6875 2.6875,2.6875c1.48022,0 2.6875,-1.19678 2.6875,-2.6875v-5.375c0,-1.49072 -1.20728,-2.6875 -2.6875,-2.6875zM91.375,27.02197c-1.48022,0 -2.6875,1.19678 -2.6875,2.6875v5.375c0,1.48022 1.20728,2.6875 2.6875,2.6875c1.48022,0 2.6875,-1.19678 2.6875,-2.6875v-5.375c0,-1.49072 -1.20728,-2.6875 -2.6875,-2.6875zM104.8125,27.02197c-1.48022,0 -2.6875,1.19678 -2.6875,2.6875v5.375c0,1.49072 1.20728,2.6875 2.6875,2.6875c1.48022,0 2.6875,-1.19678 2.6875,-2.6875v-5.375c0,-1.49072 -1.20728,-2.6875 -2.6875,-2.6875zM118.25,27.02197c-1.48022,0 -2.6875,1.19678 -2.6875,2.6875v5.375c0,1.48022 1.20728,2.6875 2.6875,2.6875c1.48022,0 2.6875,-1.19678 2.6875,-2.6875v-5.375c0,-1.49072 -1.20728,-2.6875 -2.6875,-2.6875zM131.6875,27.02197c-1.48022,0 -2.6875,1.19678 -2.6875,2.6875v5.375c0,1.48022 1.20728,2.6875 2.6875,2.6875c1.48022,0 2.6875,-1.19678 2.6875,-2.6875v-5.375c0,-1.49072 -1.20728,-2.6875 -2.6875,-2.6875zM145.125,27.02197c-1.48022,0 -2.6875,1.19678 -2.6875,2.6875v5.375c0,1.49072 1.20728,2.6875 2.6875,2.6875c1.48022,0 2.6875,-1.19678 2.6875,-2.6875v-5.375c0,-1.49072 -1.20728,-2.6875 -2.6875,-2.6875zM40.3125,64.5c-1.48022,0 -2.6875,1.19678 -2.6875,2.6875v43c0,1.49072 1.20728,2.6875 2.6875,2.6875c1.48022,0 2.6875,-1.19678 2.6875,-2.6875v-13.4375h10.75c5.9314,0 10.75,-4.8186 10.75,-10.75v-10.75c0,-5.9314 -4.8186,-10.75 -10.75,-10.75zM77.9375,64.5c-1.48022,0 -2.6875,1.19678 -2.6875,2.6875v43c0,1.49072 1.20728,2.6875 2.6875,2.6875c1.48022,0 2.6875,-1.19678 2.6875,-2.6875v-18.8125h16.125v18.8125c0,1.49072 1.20728,2.6875 2.6875,2.6875c1.48022,0 2.6875,-1.19678 2.6875,-2.6875v-43c0,-1.49072 -1.20728,-2.6875 -2.6875,-2.6875c-1.48022,0 -2.6875,1.19678 -2.6875,2.6875v18.8125h-16.125v-18.8125c0,-1.49072 -1.20728,-2.6875 -2.6875,-2.6875zM115.5625,64.5c-1.48022,0 -2.6875,1.19678 -2.6875,2.6875c0,0.03149 0.0105,0.05249 0.0105,0.07349c0,0.03149 -0.0105,0.05249 -0.0105,0.07349v43c0,1.49072 1.20728,2.6875 2.6875,2.6875c1.48022,0 2.6875,-1.19678 2.6875,-2.6875v-13.58447h10.75c5.9314,0 10.75,-4.8186 10.75,-10.75v-10.75c0,-5.9314 -4.8186,-10.75 -10.75,-10.75zM43,69.875h10.75c2.96045,0 5.375,2.41455 5.375,5.375v10.75c0,2.96045 -2.41455,5.375 -5.375,5.375h-10.75zM118.25,69.875h10.75c2.96045,0 5.375,2.41455 5.375,5.375v10.75c0,2.96045 -2.41455,5.375 -5.375,5.375h-10.75z"></path></g></g></svg>