<svg xmlns="http://www.w3.org/2000/svg" x="0px" y="0px"
width="30" height="30"
viewBox="0 0 172 172"
style=" fill:#000000;"><g fill="none" fill-rule="nonzero" stroke="none" stroke-width="1" stroke-linecap="butt" stroke-linejoin="miter" stroke-miterlimit="10" stroke-dasharray="" stroke-dashoffset="0" font-family="none" font-weight="none" font-size="none" text-anchor="none" style="mix-blend-mode: normal"><path d="M0,172v-172h172v172z" fill="none"></path><g fill="#ecf0f1"><path d="M86,8.0625c-27.52871,0 -37.625,13.53983 -37.625,23.55237v16.76013h34.9375v5.375h-51.69763c-5.95059,0 -12.05554,2.25507 -16.47144,7.5376c-4.41589,5.28252 -7.08093,13.34763 -7.08093,24.7124c0,11.36477 2.66504,19.42988 7.08093,24.7124c4.41589,5.28253 10.52085,7.5376 16.47144,7.5376h16.76013v22.13513c0,10.01254 10.09629,23.55237 37.625,23.55237c27.52871,0 37.625,-13.53983 37.625,-23.55237v-16.76013h-34.9375v-5.375h51.69763c5.95059,0 12.05554,-2.25507 16.47143,-7.5376c4.4159,-5.28253 7.08093,-13.34763 7.08093,-24.7124c0,-11.36477 -2.66504,-19.42988 -7.08093,-24.7124c-4.41589,-5.28253 -10.52084,-7.5376 -16.47143,-7.5376h-16.75488v-22.13513c-0.00162,-5.14055 -2.51851,-11.15913 -8.51917,-15.76807c-6.00065,-4.60894 -15.35819,-7.7843 -29.11108,-7.7843zM86,13.4375c12.92592,0 21.03663,2.98548 25.83569,6.67151c4.79907,3.68603 6.41848,8.09479 6.41956,11.50586v22.13513h-0.00525v18.5658c0,2.20663 -0.79438,4.30725 -2.11011,6.06787c-1.75553,2.34749 -4.43497,4.09274 -7.37488,4.69787c-0.73483,0.15128 -1.48395,0.23096 -2.24133,0.23096h-41.04736c-8.99097,0 -17.10132,7.20605 -17.10132,16.3717v13.1908h-16.76013c-4.65429,0 -8.97994,-1.5849 -12.3457,-5.61121c-3.36576,-4.0263 -5.83167,-10.73887 -5.83167,-21.26379c0,-10.52492 2.4659,-17.23749 5.83167,-21.26379c3.36576,-4.0263 7.69142,-5.61121 12.3457,-5.61121h57.07263v-16.125h-34.9375v-11.38513c0,-6.40809 6.42109,-18.17737 32.25,-18.17737zM71.21875,24.1875c-3.71066,0 -6.71875,3.00809 -6.71875,6.71875c0,3.71066 3.00809,6.71875 6.71875,6.71875c3.71066,0 6.71875,-3.00809 6.71875,-6.71875c0,-3.71066 -3.00809,-6.71875 -6.71875,-6.71875zM123.63025,59.125h16.75488c4.65429,0 8.97994,1.5849 12.3457,5.61121c3.36576,4.0263 5.83167,10.73887 5.83167,21.26379c0,10.52492 -2.4659,17.23749 -5.83167,21.26379c-3.36576,4.0263 -7.69142,5.61121 -12.3457,5.61121h-57.07263v16.125h34.9375v11.38513c0,6.40809 -6.42109,18.17737 -32.25,18.17737c-25.82891,0 -32.25,-11.76928 -32.25,-18.17737v-40.70093c0,-0.73554 0.0904,-1.45966 0.2572,-2.1626c1.16759,-4.92059 6.16746,-8.83411 11.46912,-8.83411h41.04736c0.56193,0 1.12115,-0.02897 1.67444,-0.08398c3.31851,-0.32995 6.4485,-1.63015 9.01257,-3.61658h0.00525c0.42616,-0.33059 0.83531,-0.68231 1.22827,-1.0498h0.00525c3.15277,-2.94722 5.18079,-7.03851 5.18079,-11.62134zM42.02368,64.68371c-1.4822,0.02317 -2.66581,1.242 -2.64551,2.72424v5.375c-0.01371,0.96921 0.49551,1.87072 1.33266,2.35932c0.83715,0.4886 1.87253,0.4886 2.70968,0c0.83715,-0.4886 1.34637,-1.39011 1.33266,-2.35932v-5.375c0.00995,-0.72643 -0.2746,-1.42595 -0.78881,-1.93917c-0.51421,-0.51322 -1.21427,-0.79642 -1.94068,-0.78507zM54.29065,64.68371c-1.4822,0.02317 -2.66581,1.242 -2.64551,2.72424v5.375c-0.01371,0.96921 0.49551,1.87072 1.33266,2.35932c0.83715,0.4886 1.87253,0.4886 2.70968,0c0.83715,-0.4886 1.34637,-1.39011 1.33266,-2.35932v-5.375c0.00995,-0.72643 -0.2746,-1.42595 -0.78881,-1.93917c-0.51421,-0.51322 -1.21427,-0.79642 -1.94068,-0.78507zM66.56287,64.68371c-1.4822,0.02317 -2.66581,1.242 -2.64551,2.72424v5.375c-0.01371,0.96921 0.49551,1.87072 1.33266,2.35932c0.83715,0.4886 1.87253,0.4886 2.70968,0c0.83715,-0.4886 1.34637,-1.39011 1.33266,-2.35932v-5.375c0.00995,-0.72643 -0.2746,-1.42595 -0.78881,-1.93917c-0.51421,-0.51322 -1.21427,-0.79642 -1.94068,-0.78507zM78.82983,64.68371c-1.4822,0.02317 -2.66581,1.242 -2.64551,2.72424v5.375c-0.01371,0.96921 0.49551,1.87072 1.33266,2.35932c0.83715,0.4886 1.87253,0.4886 2.70968,0c0.83715,-0.4886 1.34637,-1.39011 1.33266,-2.35932v-5.375c0.00995,-0.72643 -0.2746,-1.42595 -0.78881,-1.93917c-0.51421,-0.51322 -1.21427,-0.79642 -1.94068,-0.78507zM101.14868,96.71326c-1.4822,0.02317 -2.66581,1.242 -2.64551,2.72424v5.375c-0.01371,0.96921 0.49551,1.87072 1.33266,2.35932c0.83715,0.4886 1.87253,0.4886 2.70968,0c0.83715,-0.4886 1.34637,-1.39011 1.33266,-2.35932v-5.375c0.00995,-0.72643 -0.2746,-1.42595 -0.78881,-1.93917c-0.51421,-0.51322 -1.21427,-0.79642 -1.94068,-0.78507zM113.41565,96.71326c-1.4822,0.02317 -2.66581,1.242 -2.64551,2.72424v5.375c-0.01371,0.96921 0.49551,1.87072 1.33266,2.35932c0.83715,0.4886 1.87253,0.4886 2.70968,0c0.83715,-0.4886 1.34637,-1.39011 1.33266,-2.35932v-5.375c0.00995,-0.72643 -0.2746,-1.42595 -0.78881,-1.93917c-0.51421,-0.51322 -1.21427,-0.79642 -1.94068,-0.78507zM125.68787,96.71326c-1.4822,0.02317 -2.66581,1.242 -2.64551,2.72424v5.375c-0.01371,0.96921 0.49551,1.87072 1.33266,2.35932c0.83715,0.4886 1.87253,0.4886 2.70968,0c0.83715,-0.4886 1.34637,-1.39011 1.33266,-2.35932v-5.375c0.00995,-0.72643 -0.2746,-1.42595 -0.78881,-1.93917c-0.51421,-0.51322 -1.21427,-0.79642 -1.94068,-0.78507zM137.95483,96.71326c-1.4822,0.02317 -2.66581,1.242 -2.64551,2.72424v5.375c-0.01371,0.96921 0.49551,1.87072 1.33266,2.35932c0.83715,0.4886 1.87253,0.4886 2.70968,0c0.83715,-0.4886 1.34637,-1.39011 1.33266,-2.35932v-5.375c0.00995,-0.72643 -0.2746,-1.42595 -0.78881,-1.93917c-0.51421,-0.51322 -1.21427,-0.79642 -1.94068,-0.78507zM103.46875,134.375c-3.71066,0 -6.71875,3.00809 -6.71875,6.71875c0,3.71066 3.00809,6.71875 6.71875,6.71875c3.71066,0 6.71875,-3.00809 6.71875,-6.71875c0,-3.71066 -3.00809,-6.71875 -6.71875,-6.71875z"></path></g></g></svg>