<svg xmlns="http://www.w3.org/2000/svg" x="0px" y="0px"
width="30" height="30"
viewBox="0 0 226 226"
style=" fill:#000000;"><g fill="none" fill-rule="nonzero" stroke="none" stroke-width="1" stroke-linecap="butt" stroke-linejoin="miter" stroke-miterlimit="10" stroke-dasharray="" stroke-dashoffset="0" font-family="none" font-weight="none" font-size="none" text-anchor="none" style="mix-blend-mode: normal"><path d="M0,226v-226h226v226z" fill="none"></path><g fill="#ecf0f1"><path d="M131.3625,113c0,10.15023 -8.21227,18.3625 -18.3625,18.3625c-10.15023,0 -18.3625,-8.21227 -18.3625,-18.3625c0,-10.15023 8.21227,-18.3625 18.3625,-18.3625c10.15023,0 18.3625,8.21227 18.3625,18.3625z"></path><path d="M113,132.775c-10.90167,0 -19.775,-8.8705 -19.775,-19.775c0,-10.9045 8.87332,-19.775 19.775,-19.775c10.90168,0 19.775,8.8705 19.775,19.775c0,10.9045 -8.87332,19.775 -19.775,19.775zM113,96.05c-9.34792,0 -16.95,7.60207 -16.95,16.95c0,9.34793 7.60207,16.95 16.95,16.95c9.34793,0 16.95,-7.60208 16.95,-16.95c0,-9.34792 -7.60208,-16.95 -16.95,-16.95z"></path><g><path d="M69.13905,213.29598c-4.83357,0 -9.23493,-1.1074 -13.0854,-3.2883c-6.441,-3.65273 -10.8932,-9.94682 -13.23795,-18.7015c-2.72613,-10.18977 -2.40125,-23.72435 0.9379,-39.20535c-26.9279,-9.26317 -42.3411,-23.47575 -42.3411,-39.10082c0,-15.6279 15.41038,-29.83765 42.33828,-39.098c-3.33915,-15.48382 -3.66685,-29.0184 -0.94073,-39.20817c2.34475,-8.7575 6.79695,-15.0516 13.23512,-18.7015c3.84765,-2.1809 8.25182,-3.2883 13.0854,-3.2883c12.3961,0 27.94208,7.71225 43.87508,21.74685c15.933,-14.02047 31.47333,-21.72707 43.8553,-21.72707c4.83357,0 9.23493,1.1074 13.0854,3.2883c6.43252,3.64708 10.88755,9.92988 13.2323,18.67608c2.72895,10.18695 2.40125,23.72435 -0.94072,39.211c26.93355,9.26035 42.34957,23.47293 42.34957,39.10083c0,15.6279 -15.41602,29.84048 -42.34957,39.10365c3.33915,15.48382 3.66685,29.0184 0.9379,39.20535c-2.34475,8.74902 -6.79413,15.03182 -13.221,18.6789c-3.8533,2.1809 -8.25747,3.2883 -13.08823,3.2883c-12.39045,0 -27.93642,-7.7066 -43.86377,-21.72143c-15.933,14.03178 -31.47615,21.7412 -43.86377,21.7412zM54.62703,155.39195c-2.79957,13.32553 -3.11315,24.71027 -0.8927,32.99318c1.53115,5.72345 4.18383,9.69258 7.89305,11.79438c2.12723,1.20628 4.6556,1.8193 7.51168,1.8193c9.58805,0 22.21015,-6.44665 35.65432,-18.18452c-6.73762,-6.78565 -13.31422,-14.46682 -19.5716,-22.85708c-10.82257,-1.1752 -21.10557,-3.04535 -30.59475,-5.56525zM121.20945,183.80863c13.44135,11.72657 26.06627,18.16758 35.65433,18.1704c2.85608,0 5.38445,-0.61302 7.51733,-1.8193c3.69792,-2.09615 6.34495,-6.0568 7.87328,-11.77178c2.22045,-8.28855 1.9097,-19.67048 -0.88987,-32.99318c-9.49765,2.5199 -19.78348,4.39005 -30.60323,5.56525c-6.25455,8.39025 -12.82268,16.0686 -19.55183,22.8486zM100.47395,162.13523c4.1019,5.0172 8.29985,9.69822 12.52605,13.9555c4.2149,-4.25445 8.41568,-8.93547 12.51475,-13.9555c-4.21207,0.20057 -8.4072,0.30227 -12.51475,0.30227c-4.11037,0 -8.30832,-0.1017 -12.52605,-0.30227zM91.38593,150.23068c7.04838,0.60172 14.3171,0.90682 21.61408,0.90682c7.30263,0 14.56288,-0.3051 21.59995,-0.904c4.19795,-5.8873 8.20098,-12.0571 11.90455,-18.34838c3.5821,-6.08788 6.95233,-12.4413 10.02027,-18.88795c-3.05947,-6.4297 -6.42687,-12.7803 -10.01745,-18.8823c-3.6951,-6.27715 -7.69813,-12.44695 -11.90738,-18.34838c-7.03143,-0.5989 -14.29167,-0.904 -21.59995,-0.904c-7.3111,0 -14.57417,0.3051 -21.60277,0.90682c-4.20925,5.89295 -8.21792,12.06275 -11.91867,18.34838c-3.58775,6.09918 -6.95515,12.44977 -10.01745,18.88795c3.05665,6.42405 6.42405,12.77465 10.01463,18.8823c3.6838,6.25737 7.68682,12.42435 11.9102,18.34273zM162.41208,126.50068c-1.99445,3.80245 -4.06235,7.53145 -6.17263,11.11355c-2.12723,3.62165 -4.39005,7.2546 -6.74045,10.8367c6.70655,-1.03395 13.12213,-2.35888 19.12807,-3.955c-1.66675,-5.78842 -3.75442,-11.82545 -6.215,-17.99525zM57.3588,144.4931c6.00877,1.5933 12.42153,2.92105 19.1196,3.955c-2.36453,-3.6047 -4.62735,-7.24048 -6.74045,-10.83388c-2.10462,-3.57927 -4.17535,-7.30263 -6.16697,-11.10507c-2.44927,6.14155 -4.53413,12.17293 -6.21218,17.98395zM168.9802,113c4.3166,9.57958 7.83373,19.04898 10.4751,28.18503c20.91065,-7.3563 33.8322,-18.08848 33.8322,-28.18503c0,-10.09655 -12.92155,-20.82872 -33.8322,-28.18502c-2.63573,9.13605 -6.15568,18.60545 -10.4751,28.18502zM46.5334,84.82063c-20.90218,7.35348 -33.8209,18.08565 -33.8209,28.17937c0,10.09655 12.91873,20.82872 33.82655,28.1822c2.63855,-9.13887 6.15567,-18.60827 10.46663,-28.17655c-4.31378,-9.5711 -7.8309,-19.0405 -10.47228,-28.18502zM57.35598,81.5069c1.67805,5.80255 3.7629,11.83675 6.215,17.9896c1.9888,-3.79115 4.0567,-7.51732 6.1698,-11.1079c2.1244,-3.61317 4.38723,-7.24613 6.7461,-10.8367c-6.70655,1.03113 -13.1193,2.35887 -19.1309,3.955zM149.50465,77.54908c2.36453,3.60753 4.62735,7.24048 6.74045,10.83953c2.10745,3.57927 4.17818,7.30545 6.17263,11.1079c2.45493,-6.15002 4.53977,-12.18422 6.21783,-17.99242c-6.01725,-1.59612 -12.43,-2.92387 -19.1309,-3.955zM69.13058,24.00403c-2.85608,0 -5.38163,0.6102 -7.50603,1.8193c-3.7064,2.1018 -6.3619,6.07092 -7.89588,11.79437c-2.21762,8.29137 -1.90687,19.6733 0.89553,32.99317c9.492,-2.5199 19.78065,-4.39287 30.60605,-5.56807c6.26303,-8.39308 12.83962,-16.0686 19.56877,-22.8486c-13.447,-11.74352 -26.07757,-18.19017 -35.66845,-18.19017zM140.7641,65.03998c10.81975,1.1752 21.10558,3.04535 30.60323,5.56525c2.8024,-13.3227 3.11597,-24.70745 0.8927,-32.996c-1.53115,-5.71215 -4.181,-9.6728 -7.88175,-11.76895c-2.13005,-1.20628 -4.65843,-1.8193 -7.51732,-1.8193c-9.58523,0 -22.2045,6.44383 -35.64868,18.17322c6.7235,6.77718 13.29445,14.45553 19.55182,22.84578zM113,63.5625c4.10755,0 8.30268,0.1017 12.51757,0.30227c-4.09625,-5.01155 -8.2942,-9.68975 -12.51193,-13.94985c-4.22902,4.26575 -8.42415,8.94395 -12.5204,13.94985c4.21208,-0.20057 8.4072,-0.30227 12.51475,-0.30227z"></path><path d="M69.13058,14.11653c12.69555,0 28.2387,8.22075 43.8779,22.22428c15.63637,-13.99222 31.17105,-22.2045 43.8553,-22.2045c4.58498,0 8.75468,1.04525 12.39045,3.10468c6.0907,3.45215 10.3169,9.44398 12.55995,17.81445c3.04252,11.06553 2.40408,24.6905 -1.22605,39.776c26.05215,8.70382 42.58687,22.43615 42.58687,38.16857c0,15.73243 -16.53472,29.46475 -42.5897,38.1714c3.78832,16.30872 4.42395,30.30095 1.22605,39.77318c-2.24305,8.36765 -6.46643,14.3623 -12.55148,17.81445c-3.64143,2.06225 -6.9495,3.11597 -11.53165,3.11597c-0.00283,0 -1.1752,0 -1.17803,0c-12.6899,0 -27.91665,-8.22075 -43.5502,-22.20732c-15.63637,14.0007 -31.17387,22.2158 -43.86377,22.2158c-4.58497,0 -8.75467,-1.04525 -12.39045,-3.10468c-6.09635,-3.46062 -10.32538,-9.46093 -12.5656,-17.83705c-3.36175,-10.50052 -2.68375,-24.30347 1.22605,-39.77318c-26.04933,-8.70665 -42.58122,-22.43615 -42.58122,-38.16858c0,-15.7296 16.5319,-29.46192 42.5784,-38.16857c-1.94077,-8.64168 -3.18095,-16.66468 -3.22332,-23.98143c-0.0339,-5.77995 0.75427,-11.15592 1.99728,-15.79175c2.24305,-8.37895 6.46925,-14.37925 12.5656,-17.83705c3.63295,-2.06225 7.80265,-3.10467 12.38763,-3.10467M53.55635,72.35955c9.82252,-2.69787 20.72985,-4.73753 32.43947,-5.98053c6.72915,-9.06825 13.77188,-17.2212 20.86545,-24.2498c-13.7634,-12.27745 -27.1652,-19.54053 -37.7307,-19.54053c-3.10468,0 -5.86187,0.67235 -8.2038,2.00292c-4.04822,2.29673 -6.9269,6.554 -8.56257,12.65883c-2.42385,9.04565 -1.87297,21.27225 1.19215,35.1091M172.43518,72.35673c3.06512,-13.83685 3.616,-26.06627 1.19215,-35.11192c-1.63285,-6.09352 -4.51153,-10.34232 -8.55128,-12.6334c-2.34475,-1.33057 -5.11042,-2.00292 -8.21228,-2.00292c-10.55703,0 -23.95035,7.2546 -37.71093,19.52075c7.09075,7.0286 14.125,15.18155 20.8485,24.24698c11.70398,1.243 22.6113,3.28265 32.43383,5.98052M97.39753,65.44395c5.09065,-0.30227 10.19543,-0.565 15.5036,-0.565c5.30817,0 10.60788,0.26555 15.69853,0.565c-5.1076,-6.43817 -10.3508,-12.31983 -15.59682,-17.5263c-5.24603,5.20647 -10.49205,11.08813 -15.6053,17.5263M113,152.55c7.79983,0 15.2663,-0.34183 22.36835,-0.96615c4.29118,-5.98052 8.4411,-12.33113 12.3509,-18.98118c3.82223,-6.49468 7.28002,-13.06845 10.36775,-19.60268c-3.08773,-6.53423 -6.54552,-13.10518 -10.36492,-19.59702c-3.91262,-6.65287 -8.05973,-13.00065 -12.35372,-18.98118c-7.09923,-0.62998 -14.5657,-0.9718 -22.36835,-0.9718c-7.80265,0 -15.27195,0.34183 -22.374,0.96898c-4.29683,5.98053 -8.44958,12.33113 -12.3622,18.98117c-3.8194,6.49468 -7.2772,13.06845 -10.36493,19.60268c3.08773,6.53423 6.5427,13.10518 10.3621,19.59703c3.91263,6.65005 8.06255,13.00065 12.35655,18.98118c7.10488,0.62715 14.577,0.96898 22.38248,0.96898M162.56745,102.86673c3.17812,-7.65293 5.8082,-15.16743 7.81395,-22.35423c-7.21222,-1.98315 -15.17873,-3.62165 -23.8091,-4.82227c2.9041,4.31377 5.73192,8.78575 8.4524,13.4131c2.69505,4.57367 5.20083,9.17278 7.54275,13.7634M63.41843,102.86955c2.3391,-4.59062 4.8477,-9.18972 7.5371,-13.76622c2.7233,-4.62735 5.55395,-9.0965 8.46088,-13.41028c-8.63038,1.1978 -16.59688,2.83913 -23.8091,4.82228c2.00575,7.1868 4.63582,14.69848 7.81112,22.35423M178.5061,143.00715c22.8147,-7.7292 36.1939,-19.0857 36.1939,-30.00715c0,-10.92145 -13.3792,-22.27795 -36.1939,-30.00715c-2.69223,9.61913 -6.40993,19.72697 -11.074,30.00433c4.66407,10.28017 8.38177,20.38802 11.074,30.00997M47.48825,143.00433c2.6894,-9.6163 6.40427,-19.72415 11.06835,-29.99868c-4.66407,-10.27735 -8.38177,-20.38802 -11.07117,-30.00715c-22.81187,7.7292 -36.18542,19.08287 -36.18542,30.0015c0,10.92145 13.37638,22.27513 36.18825,30.00433M146.5723,150.30978c8.63037,-1.1978 16.59688,-2.8363 23.8091,-4.82227c-2.00858,-7.1868 -4.63865,-14.7013 -7.81395,-22.35705c-2.34193,4.59062 -4.85053,9.18972 -7.54275,13.76622c-2.72047,4.62735 -5.5483,9.09933 -8.4524,13.4131M79.40793,150.30695c-2.9041,-4.31378 -5.73192,-8.78293 -8.45522,-13.40745c-2.6894,-4.57368 -5.19517,-9.16995 -7.53427,-13.75775c-3.1753,7.6501 -5.80255,15.16177 -7.8083,22.34575c7.2094,1.98032 15.17307,3.61882 23.7978,4.81945M69.13905,203.40848c10.56267,0 23.95882,-7.26025 37.7194,-19.53205c-7.09922,-7.03142 -14.13913,-15.1872 -20.8711,-24.25828c-11.70397,-1.24017 -22.60565,-3.27982 -32.42535,-5.9777c-3.0623,13.83685 -3.61317,26.06345 -1.19215,35.1091c1.63285,6.102 4.51435,10.35927 8.55975,12.656c2.3391,1.33058 5.10477,2.00293 8.20945,2.00293M156.86378,203.39153v0c3.10467,0 5.8647,-0.67235 8.21228,-2.00293c4.03975,-2.29108 6.91278,-6.53987 8.5428,-12.63622c2.42385,-9.04847 1.87297,-21.27507 -1.18932,-35.1091c-9.82252,2.69787 -20.72702,4.73753 -32.43383,5.9777c-6.7235,9.06825 -13.76058,17.2212 -20.85133,24.25262c13.76058,12.2605 27.15672,19.5151 37.7194,19.51793M113,178.088c5.24603,-5.2093 10.48923,-11.09378 15.59965,-17.53195c-5.08782,0.30228 -10.05417,0.94072 -15.36517,0.94072c-5.31383,0 -10.75478,-0.63845 -15.84543,-0.94072c5.11325,6.441 10.3621,12.32548 15.61095,17.53195M68.1277,11.5034c-5.08217,0 -8.71512,0.95485 -12.77748,3.25722c-6.77717,3.84483 -11.45537,10.42708 -13.90182,19.56595c-2.712,10.13328 -2.47753,23.45315 0.6667,38.64883c-26.80643,9.48353 -42.1151,23.99273 -42.1151,40.0246c0,16.0347 15.3115,30.54108 42.11793,40.0246c-3.14422,15.19567 -3.3787,28.51555 -0.66387,38.64882c2.44362,9.13323 7.119,15.71548 13.90183,19.56595c4.068,2.3052 8.95525,3.28547 14.0346,3.28547c12.67578,0 27.55223,-7.16137 43.61235,-21.09145c16.0573,13.91595 31.18518,21.2553 43.85813,21.25813c5.08217,0 9.72082,-1.16672 13.78883,-3.47192c6.77152,-3.83917 11.44407,-10.41295 13.8877,-19.54053c2.71482,-10.1361 2.48035,-23.45597 -0.66387,-38.64882c26.81207,-9.48635 42.1264,-23.99555 42.1264,-40.03025c0,-16.0347 -15.3115,-30.5439 -42.12357,-40.02742c3.14705,-15.1985 3.3787,-28.51838 0.66387,-38.65165c-2.44645,-9.12758 -7.12183,-15.70135 -13.89617,-19.54053c-4.06517,-2.30237 -8.70382,-3.47193 -13.78317,-3.47193c-12.67013,0 -27.79517,7.34218 -43.8553,21.26378c-16.06295,-13.9329 -31.26145,-21.07732 -43.94005,-21.07732zM55.709,68.86503c-1.30515,-6.5653 -2.1809,-12.71815 -2.22893,-18.1139c-0.04238,-4.859 0.62432,-9.08803 1.61025,-12.77182c1.43228,-5.3449 3.8646,-9.02305 7.22917,-10.93275c1.9097,-1.0848 4.2375,-1.8193 6.84497,-1.8193c8.98633,0 20.81177,6.15285 33.56948,17.04605c-6.27433,6.42123 -12.4074,13.61368 -18.26645,21.42763c-10.12762,1.13 -19.78347,2.86173 -28.7585,5.1641zM123.27735,42.27895c12.75488,-10.88472 24.60857,-16.84547 33.5836,-16.84547c2.6103,0 4.90703,0.55088 6.81955,1.63568c3.35892,1.90405 5.78843,5.57373 7.21788,10.90733c2.46905,7.96085 2.14982,18.5433 -0.61585,30.88572c-8.97502,-2.29955 -18.62805,-4.0341 -28.75285,-5.15845c-5.85622,-7.81113 -11.98365,-15.00357 -18.25232,-21.4248zM103.60123,62.3195c3.0962,-3.6725 6.24043,-7.14725 9.4016,-10.39035c3.16118,3.2431 6.30258,6.71785 9.39595,10.39035c-3.16118,-0.113 -6.3054,-0.1695 -9.39878,-0.1695c-3.09337,0 -6.23477,0.0565 -9.39877,0.1695zM92.16563,77.1225c6.79413,-0.56217 13.79448,-0.96332 20.83437,-0.96332c7.03708,0 14.03743,0.40115 20.82872,0.96332c4.0454,5.70368 7.8987,11.65595 11.4582,17.70993c3.45215,5.87035 6.70372,11.97517 9.66997,18.16475c-2.96908,6.1924 -6.22065,12.30005 -9.6728,18.1704c-3.56233,6.0568 -7.4128,12.00625 -11.4582,17.70992c-6.78848,0.56217 -13.78883,1.31645 -20.8259,1.31645c-7.04273,0 -14.0459,-0.7571 -20.84285,-1.31928c-4.04823,-5.70085 -7.90152,-11.65312 -11.46385,-17.70992c-3.45215,-5.86752 -6.7009,-11.97235 -9.66715,-18.16475c2.96625,-6.1924 6.21783,-12.30005 9.66997,-18.1704c3.56515,-6.05398 7.42128,-12.00625 11.4695,-17.7071zM162.21715,96.1178c-1.55093,-2.87585 -3.1414,-5.70085 -4.75448,-8.44675c-1.61025,-2.73743 -3.29677,-5.48615 -5.04262,-8.21793c5.01155,0.85315 9.84512,1.87298 14.44705,3.051c-1.31927,4.42395 -2.87585,8.97785 -4.64995,13.61368zM59.1216,82.50413c4.60193,-1.17803 9.4355,-2.19785 14.44705,-3.051c-1.74867,2.73177 -3.4352,5.4805 -5.04545,8.2151c-1.61308,2.7459 -3.20355,5.5709 -4.75447,8.44675c-1.7741,-4.63018 -3.32785,-9.18408 -4.64712,-13.61085zM170.53113,112.99718c3.99738,-8.93265 7.30828,-17.7749 9.85925,-26.34595c19.50097,7.11617 31.48462,17.0856 31.48462,26.34877c0,9.26318 -11.98365,19.2326 -31.48462,26.34878c-2.5538,-8.57388 -5.86188,-17.41895 -9.85925,-26.3516zM45.60115,139.34595c-19.49533,-7.11617 -31.47615,-17.0856 -31.47615,-26.34595c0,-9.26035 11.98083,-19.22978 31.47332,-26.34595c2.55098,8.57388 5.85905,17.41613 9.85643,26.34878c-3.99455,8.92983 -7.30262,17.77208 -9.8536,26.34313zM152.41723,146.5497c1.74585,-2.7346 3.4352,-5.48333 5.04262,-8.21793c1.6159,-2.7459 3.20637,-5.57372 4.7573,-8.44957c1.7741,4.63582 3.32785,9.19255 4.64995,13.61932c-4.60475,1.17238 -9.43832,2.19503 -14.44987,3.04818zM59.12443,143.49588c1.31927,-4.42395 2.87302,-8.97502 4.6443,-13.6052c1.5481,2.87303 3.13857,5.69803 4.75165,8.4411c1.60743,2.7346 3.29395,5.4805 5.04263,8.2151c-5.00872,-0.85597 -9.83947,-1.8758 -14.43857,-3.051zM69.13905,200.58348c-2.6103,0 -4.9042,-0.55087 -6.81673,-1.63567c-3.36175,-1.9097 -5.79408,-5.58503 -7.22353,-10.92992c-2.34757,-8.03713 -2.08202,-18.6224 0.61585,-30.88573c8.9722,2.29955 18.6224,4.0341 28.74438,5.15845c5.86187,7.81395 11.99495,15.00922 18.2721,21.4361c-12.75487,10.89602 -24.6114,16.8596 -33.59207,16.85678v0zM141.52685,162.29625c10.1248,-1.12717 19.77783,-2.8589 28.75285,-5.15845c3.12162,13.3905 3.3674,24.06335 0.61302,30.8829c-1.42663,5.33642 -3.8533,9.0061 -7.2094,10.90733c-1.91535,1.0848 -4.20925,1.63567 -6.81672,1.63567v2.825l-0.00283,-2.825c-8.9835,0 -20.84002,-5.96075 -33.59207,-16.83983c6.2715,-6.42122 12.39892,-13.61367 18.25515,-21.42762zM113,174.0765c-3.164,-3.2431 -6.31105,-6.72067 -9.40725,-10.396c3.164,0.113 6.31105,0.1695 9.40725,0.1695c3.09338,0 6.2376,-0.0565 9.39878,-0.1695c-3.09337,3.67533 -6.2376,7.1529 -9.39877,10.396z"></path></g></g></g></svg>