<svg xmlns="http://www.w3.org/2000/svg" x="0px" y="0px"
width="30" height="30"
viewBox="0 0 226 226"
style=" fill:#000000;"><g fill="none" fill-rule="nonzero" stroke="none" stroke-width="1" stroke-linecap="butt" stroke-linejoin="miter" stroke-miterlimit="10" stroke-dasharray="" stroke-dashoffset="0" font-family="none" font-weight="none" font-size="none" text-anchor="none" style="mix-blend-mode: normal"><path d="M0,226v-226h226v226z" fill="none"></path><g fill="#ecf0f1"><path d="M103.28906,26.22836c-10.07056,0 -20.7004,1.88498 -30.74836,5.45578c-12.03224,4.27592 -34.78182,13.84991 -51.96234,29.91851c-17.44268,16.3172 -21.74579,32.01453 -19.96039,41.27149c3.34932,17.34776 20.02529,29.22378 32.69938,37.96094c-9.25696,5.66808 -19.31424,13.4749 -23.34156,22.3793c-3.80132,8.39816 -4.00408,17.04796 -0.59148,24.3568c2.54928,5.45564 6.90282,9.50344 11.6443,10.82328c3.28152,0.91304 6.67364,1.37719 10.08172,1.37719c13.46056,0 26.73997,-7.34606 34.66805,-19.16586c1.18876,-1.77184 2.21296,-3.61508 3.08984,-5.49992c0.48364,0.57404 0.9855,1.11856 1.50078,1.60672c4.32564,4.09964 9.48141,4.09625 11.17641,4.09625c5.22512,0 8.90277,-2.26473 11.55601,-5.07617c2.2148,1.47352 4.82058,2.26 7.6275,2.26c0.339,0 0.68958,-0.00346 1.02406,-0.04414c5.61836,-0.68704 11.67961,-6.17086 11.67961,-6.17086c0.23504,0.2034 0.47079,0.39282 0.72391,0.58266c2.38656,1.79896 5.38918,2.67492 9.17242,2.67492c0.62828,0 1.27796,-0.0166 1.93336,-0.06179c4.62396,-0.31188 8.11022,-1.41738 10.30242,-2.33946c2.20576,-0.80456 5.39864,-2.22709 8.58976,-4.57297c0.77292,-0.56952 1.51116,-1.16814 2.1982,-1.80094c1.40572,0.85428 2.9921,1.47055 4.71422,1.81859c0.84072,0.17176 1.71795,0.25601 2.62195,0.25602c2.37752,0 4.95067,-0.58118 7.85703,-1.77446c2.35944,-0.8136 5.76455,-2.27215 9.16359,-4.76719c7.87384,-5.79012 11.70489,-12.67175 11.37945,-20.43711c-0.00904,-0.23956 -0.02606,-0.47983 -0.04414,-0.72391c1.16164,-0.12656 2.36339,-0.18539 3.60188,-0.18539c1.53228,0 3.14839,0.10149 4.79367,0.29133c10.7802,1.26108 13.09748,6.34763 13.0568,8.03359c-0.0678,0.44296 -0.83507,1.15493 -1.55375,1.59789c-4.56068,2.82048 -6.45908,6.4826 -5.65,10.88508c0.86332,4.76408 4.86507,8.10422 9.72859,8.10422c0.9266,0 1.7366,-0.11653 2.41008,-0.22953c5.78108,-0.97632 16.79689,-8.15069 17.30312,-21.04625c0.29832,-7.48512 -2.76793,-15.14398 -8.40437,-21.01094c-7.08284,-7.3676 -17.46846,-11.42359 -29.24758,-11.42359h-0.27367c-4.86352,0.02712 -9.58692,0.69361 -14.125,1.98633l-0.14125,-1.02406c-0.27572,-1.93908 -0.38039,-2.6663 -0.15891,-4.35226c0.19888,-1.5142 1.12393,-4.25071 1.57141,-5.57055c0.62828,-1.84416 1.08515,-3.17608 0.92695,-5.1468c-0.30736,-3.84652 -3.50385,-10.38018 -13.52469,-10.4525h-0.03531h-0.24719c-8.9044,0 -14.40609,2.58622 -16.34969,7.6893c-0.24408,0.63732 -0.53152,1.47811 -0.82984,2.44539c-2.0792,-2.18768 -5.41962,-3.91001 -10.54078,-3.94617h-0.03531h-0.25602c-1.0622,0 -2.07412,0.04245 -3.03688,0.11477c12.84584,-11.90116 21.03368,-28.99177 16.86172,-45.36773c-4.05444,-15.9104 -21.14541,-25.79578 -44.59969,-25.79578zM103.28023,35.22422c18.0348,0 32.77163,6.74356 35.90399,19.03344c4.58328,17.97152 -11.02597,39.46596 -31.00437,47.19516c-10.38244,4.01828 -19.72133,5.32336 -26.90812,5.32336c-5.15732,0 -9.21021,-0.67793 -11.74141,-1.50961c-6.88848,-2.26 -10.93261,-6.79497 -11.91797,-9.35781c-0.3842,-1.00344 -1.05316,-2.69215 0,-3.27523c0.1808,-0.09944 0.33617,-0.16774 0.49437,-0.16774c0.41584,0 0.90223,0.42686 2.14523,1.80094c1.44188,1.59104 6.70189,5.52641 16.43797,5.52641c1.36956,0 2.83722,-0.07091 4.38758,-0.24719c32.9734,-3.69736 52.83329,-29.32174 46.55953,-43.10774c-2.3052,-5.0624 -10.39324,-8.66039 -22.14976,-8.66039c-10.65364,0 -24.32078,2.96201 -39.41758,10.48781c-38.76352,19.31396 -40.86207,35.23255 -41.19203,41.28031c-0.90852,16.6336 20.52723,25.39096 32.12555,37.76672c0.15368,0.16272 0.30108,0.32283 0.45024,0.48555c2.17412,-1.1978 4.46294,-2.4562 6.70937,-3.69016c5.84888,-3.21372 11.35438,-6.2263 13.93078,-7.6275c4.08156,-5.93024 12.37371,-12.47414 18.35367,-12.47414c9.56432,0 6.26797,13.73656 6.26797,13.73656c0,0 0.1969,-0.63993 0.45906,-0.64445c0.20792,-0.00452 0.87956,-1.06821 2.52484,-1.06821c0.49268,0 1.06545,0.0957 1.74797,0.3443c3.03744,1.11192 2.34786,3.24366 2.36594,3.46062c0.03616,0.42036 -3.58415,12.63495 -5.09383,20.46359c-0.71868,3.73352 -0.30072,6.45336 -0.08828,6.45336c0.29832,0 0.90047,-0.95598 1.46547,-1.9775l-0.00883,-0.02649c0,0 0.42036,-0.76642 1.13,-2.15406c0.0904,-0.18532 0.14125,-0.30016 0.14125,-0.30016l0.00883,0.00883c0.83168,-1.63624 2.00321,-4.03085 3.35469,-7.00953c2.65324,-5.84888 12.78065,-28.41653 13.63945,-30.91609c0.8588,-2.49956 1.30995,-5.08564 1.73031,-6.18852c0.41584,-1.0848 3.87237,-1.90687 7.96297,-1.90687h0.2207c4.18552,0.03164 4.60313,1.80991 4.63477,2.18055c0.03164,0.37064 -1.99318,5.32082 -2.45422,8.8193c-0.46104,3.49848 -0.01773,5.2545 0.36195,8.1925c0.25312,1.92552 1.45438,4.36257 2.86914,7.1243c4.32564,-7.07832 11.94925,-20.61749 12.68602,-24.40977c0.50172,-2.58996 1.30995,-5.07681 1.73031,-6.17969c0.41584,-1.0848 3.87689,-1.9157 7.96297,-1.9157h0.21187c4.18552,0.03164 4.61195,1.81874 4.64359,2.18937c0.03164,0.37064 -1.99318,5.32082 -2.45422,8.8193c-0.46104,3.49848 -0.01773,5.24567 0.36195,8.18367c0.32544,2.51312 2.27667,5.90425 4.20219,9.74625c5.2658,-2.59448 11.54931,-4.34259 18.80391,-4.37875h0.22953c18.61788,0 29.1165,12.08818 28.68258,23.09437c-0.32544,8.68744 -8.31666,12.27399 -9.79922,12.52711c-0.3616,0.06328 -0.67383,0.10594 -0.92695,0.10594c-0.50172,0 -0.78768,-0.18108 -0.89164,-0.74156c-0.10848,-0.58308 0.27932,-0.85124 1.54492,-1.6332c1.2656,-0.78196 5.04715,-3.37651 5.72062,-8.09539c0.678,-4.71888 -2.86547,-15.98682 -20.91383,-18.09766c-2.05208,-0.23956 -3.99123,-0.34429 -5.83539,-0.34429c-5.70876,0 -10.42835,1.0658 -14.28391,2.67492c0.9492,2.45436 1.64832,5.00696 1.7568,7.58336c0.23504,5.65904 -3.67448,9.83954 -7.73344,12.82726c-2.36396,1.7402 -4.90321,2.90127 -7.00953,3.60188c-1.41024,0.59664 -3.20517,1.20063 -4.68773,1.20063c-0.29832,0 -0.58082,-0.02521 -0.8475,-0.07945c-3.52108,-0.70964 -5.39716,-3.83317 -3.00156,-10.72617c1.29724,-3.729 5.02786,-9.41092 11.04398,-14.30156c-1.37408,-2.825 -2.90389,-5.7029 -3.68133,-8.34258c-1.53228,-5.21156 -2.00398,-8.36024 -2.00398,-8.36024c0,0 -4.97031,10.28166 -11.37063,19.64258c-0.37064,0.5424 -0.73739,1.06905 -1.10351,1.59789c1.25656,2.9154 2.25251,6.00948 2.38359,9.12828c0.23504,5.65452 -2.21784,9.92783 -6.2768,12.91555c-2.20124,1.61816 -4.54338,2.73764 -6.5593,3.4518c-1.29272,0.56048 -3.90754,1.47719 -7.6275,1.73031c-0.44748,0.03164 -0.8903,0.05297 -1.32422,0.05297c-1.53228,0 -2.91081,-0.2188 -3.76961,-0.86516c-1.50516,-1.13 -1.68674,-2.54172 -0.9093,-4.4582c0.65992,-1.6272 5.58827,-7.26032 9.72859,-12.19164c1.13904,-1.36052 2.23281,-2.74625 3.20461,-4.03445c-0.01356,-0.03164 -0.01766,-0.05297 -0.01766,-0.05297c0,0 0.74827,-0.96679 1.96867,-2.65727c-1.50968,-3.24988 -3.43061,-6.64638 -4.33461,-9.71094c-1.53228,-5.21156 -1.99516,-8.36906 -1.99516,-8.36906c0,0 -5.03274,12.89944 -10.27594,23.19148c-4.05896,7.96876 -6.76906,12.79965 -7.98946,14.91953c-0.00904,0.05424 -0.01766,0.07945 -0.01766,0.07945c0,0 -0.17797,0.31089 -0.49437,0.79453c-0.15368,0.26216 -0.22953,0.39727 -0.22953,0.39727c0,0 -0.00431,-0.01723 -0.00883,-0.03531c-1.36052,2.00688 -4.41802,5.94133 -7.45094,5.94133c-8.33488,0 -5.27039,-16.91469 -5.27039,-16.91469c0,0 -2.43395,6.26549 -5.18211,11.64429c-2.2374,4.3844 -4.27429,8.09539 -8.73101,8.09539c-1.2882,0 -3.31507,-0.04195 -5.00555,-1.64203c-3.82844,-3.63408 -6.75373,-12.86293 -6.17969,-20.00453c0.48816,-6.0794 1.42225,-10.28632 2.70141,-13.79836c-2.29164,1.24752 -4.92927,2.72182 -7.61867,4.2993c-1.3786,0.80908 -2.76652,1.632 -4.13156,2.43656c0.0452,0.08136 0.09174,0.16583 0.13242,0.24719c3.42616,6.61728 4.32854,21.10325 -3.13398,32.23148c-6.05228,9.02644 -16.3196,15.19321 -27.20828,15.19321c-2.54024,0 -5.11332,-0.33639 -7.67164,-1.05055c-4.36632,-1.21588 -10.9699,-10.24585 -5.27922,-22.82953c5.0172,-11.09208 25.07604,-21.59416 30.35992,-24.20672c0.44296,-0.24408 0.93684,-0.50977 1.45664,-0.79453c-10.53612,-9.21628 -36.85926,-21.6448 -40.54758,-40.7418c-1.0396,-5.37428 1.47924,-18.24131 17.27664,-33.01719c13.28428,-12.42548 31.76967,-21.93697 48.83719,-28.00281c9.39708,-3.34028 18.95991,-4.93492 27.74679,-4.93492zM105.50492,56.73836c9.6276,0 13.55371,2.79555 14.01023,3.48711c0.6328,1.4012 0.48979,4.52939 -1.95101,8.83695c-5.22964,9.2208 -18.84847,19.46121 -37.47539,21.54945c-1.16164,0.13108 -2.29637,0.19422 -3.38117,0.19422c-6.96532,0 -9.86038,-2.65663 -9.8875,-2.68375c-1.61816,-1.78992 -4.21186,-4.6479 -8.6957,-4.65242c-1.6724,0 -3.3008,0.43893 -4.84664,1.29773c-1.31532,0.72772 -7.69071,4.83668 -4.05211,14.30156c1.97524,5.13472 8.14504,11.65171 17.515,14.72531c2.50408,0.82264 5.57097,1.39647 8.94289,1.70383c-1.36504,1.356 -2.57583,2.72386 -3.60187,4.02562c-2.9154,1.59104 -7.45835,4.07895 -12.22695,6.70055l-0.90047,0.48555c-2.9154,-2.56736 -6.02453,-4.95067 -9.06649,-7.29203c-9.90784,-7.62072 -16.37539,-13.08999 -16.03187,-19.39539c0.72772,-13.32496 20.10326,-25.70453 36.23062,-33.74109c12.34864,-6.15172 24.92752,-9.5432 35.41844,-9.5432zM117.00797,107.29703c-0.07684,0.2938 -0.14386,0.59742 -0.2207,0.9093c-0.25764,1.0396 -0.54791,2.20957 -0.90047,3.23109c-0.29832,0.8136 -1.55029,3.70795 -3.20461,7.46859c-0.25312,-0.14464 -0.51019,-0.27953 -0.77688,-0.40609c-0.452,-2.63064 -1.40155,-5.33459 -3.18695,-7.68047c0.89496,-0.3164 1.79268,-0.65385 2.71024,-1.00641c1.88032,-0.72772 3.74425,-1.56682 5.57937,-2.51602zM96.24422,122.11945c-1.55488,0 -4.07648,1.35537 -6.42687,3.98149c-2.02496,2.26904 -5.47535,8.11319 -7.08899,13.00383c-3.2092,9.718 -1.82784,19.59328 0.45024,20.18992c0.0678,0.01808 0.14408,0.02648 0.21187,0.02648c2.6668,0 6.85613,-12.45535 8.88109,-17.40023c1.30628,-3.18208 6.38231,-17.29868 5.27039,-19.18352c-0.24408,-0.41132 -0.69657,-0.61797 -1.29773,-0.61797zM163.76172,138.12484c-3.37192,2.97868 -5.31227,6.10094 -6.16203,7.95414c-2.16508,4.71888 -2.27095,6.23047 -1.61555,6.70055c3.15044,-1.13 8.35034,-3.85895 8.39555,-11.15875c0.00904,-1.09384 -0.22473,-2.27102 -0.61797,-3.49594zM54.91094,146.16727c-0.32544,0.18984 -0.62864,0.37537 -0.92696,0.55617v0.00883c0,0 -0.13962,0.08037 -0.39726,0.22953c-1.55488,0.93112 -2.83997,1.70037 -3.70781,2.22469c-3.82844,2.39108 -9.60175,6.27948 -14.07203,10.49664c-7.33596,6.92012 -8.87467,16.52667 -5.00555,18.76859c0.82716,0.47912 1.91726,0.71508 3.1693,0.71508c4.1584,0 10.14613,-2.61482 14.74297,-7.6275c6.27376,-6.8478 8.86414,-15.52295 6.19734,-25.37203zM136.35922,147.29727c-1.30176,1.70856 -2.50069,3.22749 -3.53125,4.51117c-1.77184,2.20576 -6.2768,7.04484 -6.2768,7.04484c0,0 -0.63767,0.60533 -0.36195,0.76805c0.0904,0.05424 0.20439,0.07945 0.33547,0.07945c0.4294,0 1.06114,-0.25658 1.73914,-0.60914c2.49956,-1.57296 8.09949,-5.48749 8.11305,-11.29117c0,-0.16724 -0.0041,-0.33144 -0.01766,-0.5032z"></path></g></g></svg>