<svg xmlns="http://www.w3.org/2000/svg" x="0px" y="0px"
width="50" height="50"
viewBox="0 0 226 226"
style=" fill:#000000;"><g fill="none" fill-rule="nonzero" stroke="none" stroke-width="1" stroke-linecap="butt" stroke-linejoin="miter" stroke-miterlimit="10" stroke-dasharray="" stroke-dashoffset="0" font-family="none" font-weight="none" font-size="none" text-anchor="none" style="mix-blend-mode: normal"><path d="M0,226v-226h226v226z" fill="none"></path><g fill="#ffffff"><path d="M52.45837,21.1875c-5.39343,0 -10.23511,2.99329 -12.63525,7.80737l-16.77344,33.53308c-1.21387,2.44153 -1.86218,5.17273 -1.86218,7.89014v35.51941c0,4.23474 1.91736,8.00049 4.88306,10.59375c-2.9657,2.59326 -4.88306,6.35901 -4.88306,10.59375v21.1875c0,4.23474 1.91736,8.00049 4.88306,10.59375c-2.9657,2.59326 -4.88306,6.35901 -4.88306,10.59375v21.1875c0,7.79358 6.33142,14.125 14.125,14.125h155.375c7.79358,0 14.125,-6.33142 14.125,-14.125v-21.1875c0,-4.23474 -1.91736,-8.00049 -4.88305,-10.59375c2.9657,-2.59326 4.88305,-6.35901 4.88305,-10.59375v-21.1875c0,-4.23474 -1.91736,-8.00049 -4.88305,-10.59375c2.9657,-2.59326 4.88305,-6.35901 4.88305,-10.59375v-35.51941c0,-2.71741 -0.64832,-5.44861 -1.86218,-7.89014l-16.77344,-33.53308c-2.40014,-4.81409 -7.24182,-7.80737 -12.63525,-7.80737zM52.45837,28.25h121.08325c2.68982,0 5.11755,1.50354 6.31763,3.90369l16.77344,33.53308c0.73108,1.46216 1.11731,3.10364 1.11731,4.73132v0.20691h-169.5v-0.20691c0,-1.62768 0.38623,-3.26916 1.11731,-4.73132l16.75964,-33.53308c1.21387,-2.40015 3.62781,-3.90369 6.33142,-3.90369zM52.96875,35.3125c-1.95874,0 -3.53125,1.57251 -3.53125,3.53125c0,1.95874 1.57251,3.53125 3.53125,3.53125h91.8125c1.95874,0 3.53125,-1.57251 3.53125,-3.53125c0,-1.95874 -1.57251,-3.53125 -3.53125,-3.53125zM158.90625,35.3125c-1.95874,0 -3.53125,1.57251 -3.53125,3.53125c0,1.95874 1.57251,3.53125 3.53125,3.53125h14.125c1.95874,0 3.53125,-1.57251 3.53125,-3.53125c0,-1.95874 -1.57251,-3.53125 -3.53125,-3.53125zM28.25,77.6875h169.5v28.25c0,3.88989 -3.17261,7.0625 -7.0625,7.0625h-155.375c-3.88989,0 -7.0625,-3.17261 -7.0625,-7.0625zM173.03125,84.75c-5.83484,0 -10.59375,4.75891 -10.59375,10.59375c0,5.83484 4.75891,10.59375 10.59375,10.59375c5.83484,0 10.59375,-4.75891 10.59375,-10.59375c0,-5.83484 -4.75891,-10.59375 -10.59375,-10.59375zM45.90625,88.28125c-1.95874,0 -3.53125,1.57251 -3.53125,3.53125v7.0625c0,1.95874 1.57251,3.53125 3.53125,3.53125c1.95874,0 3.53125,-1.57251 3.53125,-3.53125v-7.0625c0,-1.95874 -1.57251,-3.53125 -3.53125,-3.53125zM63.5625,88.28125c-1.95874,0 -3.53125,1.57251 -3.53125,3.53125v7.0625c0,1.95874 1.57251,3.53125 3.53125,3.53125c1.95874,0 3.53125,-1.57251 3.53125,-3.53125v-7.0625c0,-1.95874 -1.57251,-3.53125 -3.53125,-3.53125zM81.21875,88.28125c-1.95874,0 -3.53125,1.57251 -3.53125,3.53125v7.0625c0,1.95874 1.57251,3.53125 3.53125,3.53125c1.95874,0 3.53125,-1.57251 3.53125,-3.53125v-7.0625c0,-1.95874 -1.57251,-3.53125 -3.53125,-3.53125zM98.875,88.28125c-1.95874,0 -3.53125,1.57251 -3.53125,3.53125v7.0625c0,1.95874 1.57251,3.53125 3.53125,3.53125c1.95874,0 3.53125,-1.57251 3.53125,-3.53125v-7.0625c0,-1.95874 -1.57251,-3.53125 -3.53125,-3.53125zM116.53125,88.28125c-1.95874,0 -3.53125,1.57251 -3.53125,3.53125v7.0625c0,1.95874 1.57251,3.53125 3.53125,3.53125c1.95874,0 3.53125,-1.57251 3.53125,-3.53125v-7.0625c0,-1.95874 -1.57251,-3.53125 -3.53125,-3.53125zM173.03125,91.08142c2.35877,0 4.26233,1.91736 4.26233,4.26233c0,2.35877 -1.91736,4.26233 -4.26233,4.26233c-2.34497,0 -4.26233,-1.90356 -4.26233,-4.26233c0,-2.35877 1.90356,-4.26233 4.26233,-4.26233zM130.65625,91.8125c-1.95874,0 -3.53125,1.57251 -3.53125,3.53125c0,1.95874 1.57251,3.53125 3.53125,3.53125h21.1875c1.95874,0 3.53125,-1.57251 3.53125,-3.53125c0,-1.95874 -1.57251,-3.53125 -3.53125,-3.53125zM35.3125,120.0625h155.375c3.88989,0 7.0625,3.17261 7.0625,7.0625v21.1875c0,3.88989 -3.17261,7.0625 -7.0625,7.0625h-155.375c-3.88989,0 -7.0625,-3.17261 -7.0625,-7.0625v-21.1875c0,-3.88989 3.17261,-7.0625 7.0625,-7.0625zM173.03125,127.125c-5.83484,0 -10.59375,4.75891 -10.59375,10.59375c0,5.83484 4.75891,10.59375 10.59375,10.59375c5.83484,0 10.59375,-4.75891 10.59375,-10.59375c0,-5.83484 -4.75891,-10.59375 -10.59375,-10.59375zM45.90625,130.65625c-1.95874,0 -3.53125,1.57251 -3.53125,3.53125v7.0625c0,1.95874 1.57251,3.53125 3.53125,3.53125c1.95874,0 3.53125,-1.57251 3.53125,-3.53125v-7.0625c0,-1.95874 -1.57251,-3.53125 -3.53125,-3.53125zM63.5625,130.65625c-1.95874,0 -3.53125,1.57251 -3.53125,3.53125v7.0625c0,1.95874 1.57251,3.53125 3.53125,3.53125c1.95874,0 3.53125,-1.57251 3.53125,-3.53125v-7.0625c0,-1.95874 -1.57251,-3.53125 -3.53125,-3.53125zM81.21875,130.65625c-1.95874,0 -3.53125,1.57251 -3.53125,3.53125v7.0625c0,1.95874 1.57251,3.53125 3.53125,3.53125c1.95874,0 3.53125,-1.57251 3.53125,-3.53125v-7.0625c0,-1.95874 -1.57251,-3.53125 -3.53125,-3.53125zM98.875,130.65625c-1.95874,0 -3.53125,1.57251 -3.53125,3.53125v7.0625c0,1.95874 1.57251,3.53125 3.53125,3.53125c1.95874,0 3.53125,-1.57251 3.53125,-3.53125v-7.0625c0,-1.95874 -1.57251,-3.53125 -3.53125,-3.53125zM116.53125,130.65625c-1.95874,0 -3.53125,1.57251 -3.53125,3.53125v7.0625c0,1.95874 1.57251,3.53125 3.53125,3.53125c1.95874,0 3.53125,-1.57251 3.53125,-3.53125v-7.0625c0,-1.95874 -1.57251,-3.53125 -3.53125,-3.53125zM173.03125,133.45642c2.34497,0 4.26233,1.91736 4.26233,4.26233c0,2.35877 -1.90356,4.26233 -4.26233,4.26233c-2.35877,0 -4.26233,-1.91736 -4.26233,-4.26233c0,-2.35877 1.91736,-4.26233 4.26233,-4.26233zM130.65625,134.1875c-1.95874,0 -3.53125,1.57251 -3.53125,3.53125c0,1.95874 1.57251,3.53125 3.53125,3.53125h21.1875c1.95874,0 3.53125,-1.57251 3.53125,-3.53125c0,-1.95874 -1.57251,-3.53125 -3.53125,-3.53125zM35.3125,162.4375h155.375c3.88989,0 7.0625,3.17261 7.0625,7.0625v21.1875c0,3.88989 -3.17261,7.0625 -7.0625,7.0625h-155.375c-3.88989,0 -7.0625,-3.17261 -7.0625,-7.0625v-21.1875c0,-3.88989 3.17261,-7.0625 7.0625,-7.0625zM173.03125,169.5c-5.83484,0 -10.59375,4.75891 -10.59375,10.59375c0,5.83484 4.75891,10.59375 10.59375,10.59375c5.83484,0 10.59375,-4.75891 10.59375,-10.59375c0,-5.83484 -4.75891,-10.59375 -10.59375,-10.59375zM45.90625,173.03125c-1.95874,0 -3.53125,1.57251 -3.53125,3.53125v7.0625c0,1.95874 1.57251,3.53125 3.53125,3.53125c1.95874,0 3.53125,-1.57251 3.53125,-3.53125v-7.0625c0,-1.95874 -1.57251,-3.53125 -3.53125,-3.53125zM63.5625,173.03125c-1.95874,0 -3.53125,1.57251 -3.53125,3.53125v7.0625c0,1.95874 1.57251,3.53125 3.53125,3.53125c1.95874,0 3.53125,-1.57251 3.53125,-3.53125v-7.0625c0,-1.95874 -1.57251,-3.53125 -3.53125,-3.53125zM81.21875,173.03125c-1.95874,0 -3.53125,1.57251 -3.53125,3.53125v7.0625c0,1.95874 1.57251,3.53125 3.53125,3.53125c1.95874,0 3.53125,-1.57251 3.53125,-3.53125v-7.0625c0,-1.95874 -1.57251,-3.53125 -3.53125,-3.53125zM98.875,173.03125c-1.95874,0 -3.53125,1.57251 -3.53125,3.53125v7.0625c0,1.95874 1.57251,3.53125 3.53125,3.53125c1.95874,0 3.53125,-1.57251 3.53125,-3.53125v-7.0625c0,-1.95874 -1.57251,-3.53125 -3.53125,-3.53125zM116.53125,173.03125c-1.95874,0 -3.53125,1.57251 -3.53125,3.53125v7.0625c0,1.95874 1.57251,3.53125 3.53125,3.53125c1.95874,0 3.53125,-1.57251 3.53125,-3.53125v-7.0625c0,-1.95874 -1.57251,-3.53125 -3.53125,-3.53125zM173.03125,175.67969c2.44153,0 4.41406,1.97254 4.41406,4.41406c0,2.44153 -1.97254,4.41406 -4.41406,4.41406c-2.44153,0 -4.41406,-1.97254 -4.41406,-4.41406c0,-2.44153 1.97254,-4.41406 4.41406,-4.41406zM130.65625,176.5625c-1.95874,0 -3.53125,1.57251 -3.53125,3.53125c0,1.95874 1.57251,3.53125 3.53125,3.53125h21.1875c1.95874,0 3.53125,-1.57251 3.53125,-3.53125c0,-1.95874 -1.57251,-3.53125 -3.53125,-3.53125z"></path></g></g></svg>