<svg xmlns="http://www.w3.org/2000/svg" x="0px" y="0px"
width="64" height="64"
viewBox="0 0 172 172"
style=" fill:#000000;"><g fill="none" fill-rule="nonzero" stroke="none" stroke-width="1" stroke-linecap="butt" stroke-linejoin="miter" stroke-miterlimit="10" stroke-dasharray="" stroke-dashoffset="0" font-family="none" font-weight="none" font-size="none" text-anchor="none" style="mix-blend-mode: normal"><path d="M0,172v-172h172v172z" fill="none"></path><g fill="#ffffff"><path d="M18.8125,1.34375c-9.675,0 -17.46875,7.79375 -17.46875,17.46875v134.375c0,9.675 7.79375,17.46875 17.46875,17.46875h134.375c9.675,0 17.46875,-7.79375 17.46875,-17.46875v-134.375c0,-9.675 -7.79375,-17.46875 -17.46875,-17.46875zM18.8125,9.40625h134.375c5.24062,0 9.40625,4.16563 9.40625,9.40625v20.15625h-153.1875v-20.15625c0,-5.24062 4.16563,-9.40625 9.40625,-9.40625zM24.1875,20.15625c-2.28438,0 -4.03125,1.74687 -4.03125,4.03125c0,2.28438 1.74687,4.03125 4.03125,4.03125h5.375c2.28438,0 4.03125,-1.74687 4.03125,-4.03125c0,-2.28438 -1.74687,-4.03125 -4.03125,-4.03125zM45.6875,20.15625c-2.28438,0 -4.03125,1.74687 -4.03125,4.03125c0,2.28438 1.74687,4.03125 4.03125,4.03125h5.375c2.28438,0 4.03125,-1.74687 4.03125,-4.03125c0,-2.28438 -1.74687,-4.03125 -4.03125,-4.03125zM9.40625,47.03125h153.1875v106.15625c0,5.24062 -4.16563,9.40625 -9.40625,9.40625h-134.375c-5.24062,0 -9.40625,-4.16563 -9.40625,-9.40625zM59.125,65.84375c-2.28438,0 -4.03125,1.74688 -4.03125,4.03125v69.875c0,2.28438 1.74687,4.03125 4.03125,4.03125c2.28438,0 4.03125,-1.74687 4.03125,-4.03125v-69.875c0,-2.28437 -1.74687,-4.03125 -4.03125,-4.03125zM112.875,65.84375c-2.28437,0 -4.03125,1.74688 -4.03125,4.03125v69.875c0,2.28438 1.74688,4.03125 4.03125,4.03125c2.28437,0 4.03125,-1.74687 4.03125,-4.03125v-69.875c0,-2.28437 -1.74688,-4.03125 -4.03125,-4.03125z"></path></g></g></svg>